<?xml version="1.0" encoding="UTF-8"?>
<!-- Generator: visioncortex VTracer -->
<svg id="svg" version="1.1" xmlns="http://www.w3.org/2000/svg" style="display: block;" viewBox="0 0 1408 768"><path d="M0 0 C7.03377587 0.00329503 14.06754698 0.00054928 21.10132264 -0.00220345 C34.86202629 -0.00740083 48.62272523 -0.00704133 62.3834293 -0.00412454 C74.40334608 -0.00158967 86.42326115 -0.00096122 98.44317814 -0.00214718 C99.64809148 -0.00226176 99.64809148 -0.00226176 100.8773465 -0.00237865 C104.13925863 -0.00269007 107.40117075 -0.00300848 110.66308288 -0.00333842 C141.0992866 -0.00638027 171.53548734 -0.00364938 201.9716906 0.00175848 C228.97371223 0.00651959 255.97572915 0.00606299 282.97775074 0.00129749 C313.4225236 -0.00405787 343.86729385 -0.00618159 374.31206712 -0.00309025 C377.55558972 -0.00276958 380.79911232 -0.00245674 384.04263493 -0.00214718 C384.84109149 -0.00206811 385.63954805 -0.00198903 386.46220026 -0.00190756 C398.49675128 -0.0007721 410.53130042 -0.00209622 422.56585118 -0.00462674 C436.2255784 -0.00748493 449.88530024 -0.00677255 463.54502679 -0.00134599 C471.18146547 0.00158789 478.81789248 0.00178523 486.45433085 -0.00199217 C492.15641469 -0.00450143 497.85848648 -0.00177653 503.56056843 0.00298241 C505.8654752 0.00409919 508.17038353 0.00353178 510.4752893 0.00110662 C513.60982371 -0.00193861 516.74429497 0.00118965 519.87882611 0.00582744 C521.21747068 0.00231569 521.21747068 0.00231569 522.58315858 -0.001267 C540.11925187 0.05051346 540.11925187 0.05051346 543.20040699 3.13166858 C543.45285267 4.96953145 543.45285267 4.96953145 543.45636668 7.2519473 C543.46255091 8.12201801 543.46873514 8.99208871 543.47510677 9.8885252 C543.47174294 10.85207434 543.4683791 11.81562348 543.46491333 12.80837108 C543.47135682 14.34117156 543.47135682 14.34117156 543.47793048 15.9049377 C543.49001305 19.36918057 543.48771263 22.83327032 543.48560902 26.29753162 C543.4913218 28.79033653 543.49790858 31.28313957 543.50529983 33.77594007 C543.51939812 39.21666294 543.52723322 44.65734054 543.52965161 50.09808017 C543.5332748 58.18895962 543.54827212 66.27978968 543.56560567 74.37064994 C543.59442079 87.98211781 543.61376741 101.59358412 543.62762829 115.2050748 C543.6413672 128.69554399 543.65878214 142.18599939 543.68128201 155.67645694 C543.682676 156.51470411 543.68406999 157.35295129 543.68550623 158.21659989 C543.69117435 161.61917251 543.69686692 165.02174509 543.70259288 168.42431762 C543.75633236 200.37390411 543.79920745 232.32349674 543.83667524 264.27310604 C543.87001226 292.65712633 543.9107633 321.04112584 543.95846363 349.42512561 C543.96152122 351.24614484 543.96457875 353.06716407 543.96763622 354.88818329 C543.96914816 355.78845825 543.97066011 356.6887332 543.97221787 357.61628921 C543.979827 362.14817638 543.9874253 366.68006358 543.9950113 371.21195079 C543.99650901 372.10602214 543.99800673 373.00009349 543.99954983 373.92125791 C544.03918705 397.63082499 544.0738351 421.34039926 544.1068032 445.04997648 C544.1079769 445.89370467 544.10915059 446.73743285 544.11035985 447.60672856 C544.11984745 454.43025468 544.11984745 454.43025468 544.12448707 457.78535019 C544.14082733 469.58489684 544.15886264 481.3844398 544.17800237 493.18398223 C544.20265554 508.39850844 544.22384632 523.61303319 544.23910456 538.82757193 C544.24726418 546.87237235 544.25816776 554.91715761 544.27309287 562.96194839 C544.28392142 568.97175487 544.28940622 574.98155379 544.29281265 580.99136957 C544.29500515 583.42084997 544.29890569 585.85032956 544.30469291 588.27980405 C544.3123039 591.58540288 544.31363032 594.89094838 544.31342408 598.19655467 C544.31708374 599.13669215 544.3207434 600.07682963 544.32451397 601.04545613 C544.31729944 605.91436601 544.17163449 610.76708023 543.88084343 615.6276132 C543.79536141 617.09802269 543.79536141 617.09802269 543.70815249 618.59813743 C543.13529257 621.45657431 542.5222216 622.41924718 540.20040699 624.13166858 C527.5835471 626.75481924 513.22192124 625.24463648 500.40963551 625.20564319 C497.5648852 625.20030388 494.72013328 625.19659817 491.87538048 625.19284774 C485.21504442 625.18332208 478.55472222 625.17008183 471.89439579 625.15536167 C460.0100279 625.12953925 448.12565221 625.11454166 436.24126566 625.10025696 C413.18173588 625.07250506 390.12221521 625.04047895 367.06269642 625.00485279 C365.96967374 625.00316457 365.96967374 625.00316457 364.8545698 625.00144225 C322.39419459 624.93578558 279.93382365 624.86718835 237.47345663 624.7964425 C230.03698114 624.78405393 222.6005056 624.77169801 215.16403004 624.75935413 C214.3427297 624.75799004 213.52142936 624.75662596 212.67524114 624.75522054 C185.86529934 624.71071712 159.05535356 624.66976814 132.24540336 624.63068445 C104.5491163 624.59029234 76.85283624 624.546677 49.15656097 624.49884747 C45.25491723 624.4921104 41.35327344 624.48540875 37.4516296 624.47872783 C36.68403548 624.4774121 35.91644136 624.47609638 35.12558681 624.47474078 C22.77565185 624.45366391 10.42571425 624.43597612 -1.92422767 624.41954327 C-14.28328759 624.40302246 -26.64233739 624.38288961 -39.00138531 624.35900017 C-45.6954734 624.34616071 -52.38955284 624.33508258 -59.08365062 624.32824947 C-65.19796414 624.32197235 -71.31225165 624.31117516 -77.42655095 624.29663528 C-79.64799705 624.29217528 -81.86944734 624.28943493 -84.09089772 624.28850659 C-87.08860965 624.28701285 -90.0862447 624.27949276 -93.08394149 624.27033378 C-93.96409068 624.27135645 -94.84423987 624.27237912 -95.75106025 624.27343278 C-101.68544582 624.24581577 -101.68544582 624.24581577 -102.79959301 623.13166858 C-102.9010454 621.76344088 -102.93356003 620.39002933 -102.93825821 619.01805355 C-102.94373261 618.124045 -102.94920701 617.23003645 -102.95484731 616.30893673 C-102.95582546 615.31354157 -102.9568036 614.31814642 -102.95781139 613.29258777 C-102.96521889 611.71558245 -102.96521889 611.71558245 -102.97277603 610.10671843 C-102.98827549 606.53707458 -102.99655605 602.9674491 -103.00491527 599.39778186 C-103.01449786 596.83247268 -103.02450273 594.26716504 -103.03489689 591.70185901 C-103.05971859 585.36362089 -103.07904524 579.0253766 -103.09663548 572.68711474 C-103.1113898 567.42043459 -103.12835163 562.15376545 -103.14677814 556.8870969 C-103.15075633 555.74967204 -103.15075633 555.74967204 -103.15481488 554.5892689 C-103.16023136 553.04314734 -103.16565197 551.49702579 -103.17107661 549.95090425 C-103.22584051 534.25646284 -103.27300196 518.56200373 -103.31749568 502.86753024 C-103.32240375 501.13648455 -103.32731316 499.40543887 -103.33222393 497.67439319 C-103.33466139 496.81507397 -103.33709885 495.95575475 -103.33961018 495.07039555 C-103.36424768 486.42627218 -103.39071232 477.78215465 -103.41729039 469.13803707 C-103.69129332 379.91008876 -103.87273434 290.68207295 -103.92170641 161.00047816 C-103.92305815 152.72653255 -103.92496003 144.45258781 -103.92836574 136.17864276 C-103.92870249 135.3598005 -103.92903923 134.54095823 -103.92938618 133.69730256 C-103.93006698 132.04852343 -103.93074808 130.3997443 -103.93142949 128.75096518 C-103.93752412 113.83745984 -103.93969759 98.92396119 -103.93525467 84.01045503 C-103.93482409 82.53985414 -103.93439759 81.06925326 -103.93397525 79.59865238 C-103.93376717 78.8781607 -103.93355909 78.15766902 -103.93334471 77.41534426 C-103.93214469 72.43435904 -103.93337983 67.45337822 -103.93573383 62.47239353 C-103.93879865 55.90558926 -103.93669043 49.33880119 -103.93095866 42.7719977 C-103.92966731 40.39988399 -103.93004133 38.02776866 -103.93226639 35.65565564 C-103.95418204 9.89527937 -103.95418204 9.89527937 -102.79959301 2.13166858 C-100.68365353 0.0157291 -95.98197602 0.87410388 -93.05409244 0.81981136 C-92.13005137 0.79933889 -91.2060103 0.77886642 -90.25396799 0.75777358 C-87.14230448 0.69147029 -84.0305597 0.63373555 -80.91870311 0.57725574 C-79.83170249 0.55628421 -78.74470187 0.53531267 -77.62476184 0.51370564 C-51.75067391 0.0210563 -25.87794276 -0.01289743 0 0 Z " transform="translate(483.7995930062607,63.86833141837269)" style="fill: #FDFDFD;"/><path d="M0 0 C80.52 0 161.04 0 244 0 C244 77.88 244 155.76 244 236 C163.48 236 82.96 236 0 236 C0 158.12 0 80.24 0 0 Z " transform="translate(455,138)" style="fill: #495358;"/><path d="M0 0 C80.19 0 160.38 0 243 0 C243 77.88 243 155.76 243 236 C162.81 236 82.62 236 0 236 C0 158.12 0 80.24 0 0 Z " transform="translate(709,138)" style="fill: #AAB8BB;"/><path d="M0 0 C80.19 0 160.38 0 243 0 C243 75.57 243 151.14 243 229 C162.81 229 82.62 229 0 229 C0 153.43 0 77.86 0 0 Z " transform="translate(456,385)" style="fill: #95A6AA;"/><path d="M0 0 C79.86 0 159.72 0 242 0 C242 75.57 242 151.14 242 229 C162.14 229 82.28 229 0 229 C0 153.43 0 77.86 0 0 Z " transform="translate(710,385)" style="fill: #475156;"/><path d="M0 0 C2 2 2 2 2 6 C4.97 6 7.94 6 11 6 C11.144375 5.030625 11.28875 4.06125 11.4375 3.0625 C12 0 12 0 13 -1 C15.4375 -1.1875 15.4375 -1.1875 18 -1 C20 1 20 1 20 6 C23.3 6 26.6 6 30 6 C30 4.35 30 2.7 30 1 C30.66 0.34 31.32 -0.32 32 -1 C35.125 -0.625 35.125 -0.625 38 0 C38.495 2.97 38.495 2.97 39 6 C41.31 6 43.62 6 46 6 C46.02578125 6.81984375 46.0515625 7.6396875 46.078125 8.484375 C46.13484375 9.56203125 46.1915625 10.6396875 46.25 11.75 C46.29640625 12.81734375 46.3428125 13.8846875 46.390625 14.984375 C47.11534912 18.57083027 48.11938528 19.80274279 51 22 C54.88657212 22.48582151 57.81231652 22.34465975 61 20 C61.92499783 16.9017122 61.92499783 16.9017122 62.25 13.375 C62.39953125 12.18648437 62.5490625 10.99796875 62.703125 9.7734375 C62.80109375 8.85820312 62.8990625 7.94296875 63 7 C72.9540412 6.37242472 72.9540412 6.37242472 77.125 8.875 C79.74208703 11.84103197 80.1263586 13.4102393 80.15390015 17.26899719 C80.16250061 18.16483521 80.17110107 19.06067322 80.17996216 19.98365784 C80.18635208 21.46188271 80.18635208 21.46188271 80.19287109 22.9699707 C80.20513733 24.52380966 80.20513733 24.52380966 80.21765137 26.10903931 C80.24252874 29.54794734 80.25902661 32.98681407 80.2734375 36.42578125 C80.27876118 37.59819052 80.28408485 38.77059978 80.28956985 39.97853661 C80.31631044 46.18286867 80.33568327 52.38718054 80.35009766 58.59155273 C80.366756 65.00785888 80.4115418 71.42365245 80.4624691 77.8397646 C80.49608282 82.76652128 80.50766865 87.69315537 80.51332474 92.6200161 C80.52005244 94.98555612 80.53531361 97.35108766 80.55921555 99.71651649 C80.59074529 103.02538785 80.59092172 106.3328643 80.58349609 109.6418457 C80.59990143 110.62125626 80.61630676 111.60066681 80.63320923 112.60975647 C80.59397848 116.87450919 80.36453361 119.37879551 78.17678833 123.10694885 C73.39011845 125.95932992 69.06626612 125.6979867 63.58789062 125.64697266 C61.85783028 125.66011505 61.85783028 125.66011505 60.09281921 125.67352295 C56.28024683 125.69552973 52.46883419 125.68095799 48.65625 125.6640625 C46.00735023 125.66743024 43.35848568 125.6722748 40.70959473 125.67855835 C35.15799393 125.68764773 29.60672601 125.67568615 24.05517578 125.65185547 C17.64232726 125.62464496 11.23027359 125.63345967 4.81744432 125.6609875 C-0.69443537 125.68369831 -6.20607616 125.6868692 -11.71798754 125.67379415 C-15.0074336 125.66601018 -18.2964254 125.66689944 -21.58586121 125.68147659 C-25.25375238 125.69416339 -28.92011353 125.67483491 -32.58789062 125.64697266 C-34.21825005 125.66215439 -34.21825005 125.66215439 -35.88154602 125.67764282 C-40.42015754 125.61371196 -43.22528532 125.46155609 -47.17282104 123.10971069 C-49.82391733 118.59775939 -49.6999448 114.74797195 -49.64697266 109.59765625 C-49.65573425 108.55157196 -49.66449585 107.50548767 -49.67352295 106.42770386 C-49.69551713 102.97221313 -49.68096299 99.51800359 -49.6640625 96.0625 C-49.6674306 93.66023513 -49.67228316 91.25797192 -49.67855835 88.85571289 C-49.68592976 83.82193776 -49.6752148 78.78860635 -49.65185547 73.75488281 C-49.62336841 67.30154604 -49.63977082 60.84924894 -49.66971779 54.39595032 C-49.68778299 49.43567059 -49.68203611 44.47563748 -49.66907883 39.51535034 C-49.66574271 37.13589353 -49.66983906 34.75641434 -49.68147659 32.37698364 C-49.69417165 29.05150014 -49.67482457 25.72770169 -49.64697266 22.40234375 C-49.65709381 21.41829559 -49.66721497 20.43424744 -49.67764282 19.42037964 C-49.60584477 14.79458514 -49.50485224 12.67137618 -46.65414429 8.88037109 C-43.39312937 6.57005277 -41.63969886 6.47034622 -37.6875 6.6875 C-36.08455078 6.75517578 -36.08455078 6.75517578 -34.44921875 6.82421875 C-33.64097656 6.88222656 -32.83273437 6.94023437 -32 7 C-31.97421875 7.74765625 -31.9484375 8.4953125 -31.921875 9.265625 C-31.64810005 15.25988912 -31.64810005 15.25988912 -29.375 20.6875 C-26.0090583 22.54762568 -23.78361865 22.54051695 -20 22 C-17.09810094 19.80791798 -16.11757602 18.58185056 -15.390625 14.984375 C-15.34421875 13.91703125 -15.2978125 12.8496875 -15.25 11.75 C-15.16492188 10.13351563 -15.16492188 10.13351563 -15.078125 8.484375 C-15.03945313 7.25460938 -15.03945313 7.25460938 -15 6 C-12.69 6 -10.38 6 -8 6 C-7.814375 4.5459375 -7.814375 4.5459375 -7.625 3.0625 C-7.41875 2.051875 -7.2125 1.04125 -7 0 C-4.29393021 -1.35303489 -2.8671629 -0.7884698 0 0 Z " transform="translate(816,195)" style="fill: #AAB7B9;"/><path d="M0 0 C8.36351677 5.25683179 12.82437351 16.35945767 17.25 24.8125 C21.78511333 33.35825365 26.39310684 41.84684527 31.1875 50.25 C37.32955962 61.03218418 43.27103062 71.91759202 49.12329102 82.85961914 C50.16452054 84.77703205 51.22924735 86.68179897 52.31225586 88.57592773 C53.12835327 90.01367554 53.12835327 90.01367554 53.9609375 91.48046875 C54.702229 92.76280396 54.702229 92.76280396 55.45849609 94.07104492 C57.9538312 99.53435606 57.59891433 104.81410904 55.6640625 110.3984375 C52.68348142 116.87218368 49.65705056 120.28122441 43.07484436 123.19839478 C38.27208315 124.95442673 33.81088673 125.04794123 28.73999023 125.01318359 C27.30669876 125.02106903 27.30669876 125.02106903 25.8444519 125.02911377 C22.70732957 125.04224448 19.57072063 125.03360086 16.43359375 125.0234375 C14.2421916 125.02546005 12.05079011 125.02837301 9.85939026 125.03213501 C5.27574225 125.03654884 0.69227009 125.03015689 -3.89135742 125.01611328 C-9.75790922 124.99901201 -15.62404952 125.00887475 -21.49058628 125.02683067 C-26.01253851 125.03768521 -30.5343936 125.03421464 -35.0563488 125.0264473 C-37.21923814 125.02445044 -39.38213639 125.02688643 -41.54501534 125.03388596 C-44.57004197 125.04152892 -47.59440722 125.02985647 -50.61938477 125.01318359 C-51.50737259 125.01925629 -52.39536041 125.02532898 -53.31025696 125.03158569 C-61.23558284 124.95091298 -66.97837615 122.6954849 -72.86328125 117.2734375 C-77.54748494 112.16559781 -78.05844113 106.45343148 -77.828125 99.7578125 C-77.10432446 94.75360534 -75.03979006 90.90755002 -72.50927734 86.57128906 C-71.19650302 84.31871977 -69.92012598 82.04726687 -68.64453125 79.7734375 C-66.46777519 75.90059817 -64.27636691 72.03646089 -62.078125 68.17578125 C-58.42029082 61.73126015 -54.84492404 55.2431839 -51.27841187 48.74789429 C-45.17694316 37.63619258 -38.97769566 26.59233561 -32.54541016 15.66772461 C-31.70782708 14.20588531 -30.89798917 12.72801024 -30.10693359 11.24047852 C-23.80281784 -0.59623673 -13.13959376 -5.30686505 0 0 Z " transform="translate(588.375,437.375)" style="fill: #96A6AB;"/><path d="M0 0 C2 2 2 2 2 6 C4.97 6 7.94 6 11 6 C11.144375 5.030625 11.28875 4.06125 11.4375 3.0625 C12 0 12 0 13 -1 C15.4375 -1.1875 15.4375 -1.1875 18 -1 C20 1 20 1 20 6 C23.3 6 26.6 6 30 6 C30 4.35 30 2.7 30 1 C30.66 0.34 31.32 -0.32 32 -1 C35.125 -0.625 35.125 -0.625 38 0 C38.495 2.97 38.495 2.97 39 6 C41.31 6 43.62 6 46 6 C46.02578125 6.81984375 46.0515625 7.6396875 46.078125 8.484375 C46.13484375 9.56203125 46.1915625 10.6396875 46.25 11.75 C46.29640625 12.81734375 46.3428125 13.8846875 46.390625 14.984375 C47.11534912 18.57083027 48.11938528 19.80274279 51 22 C54.88657212 22.48582151 57.81231652 22.34465975 61 20 C61.92499783 16.9017122 61.92499783 16.9017122 62.25 13.375 C62.39953125 12.18648437 62.5490625 10.99796875 62.703125 9.7734375 C62.80109375 8.85820312 62.8990625 7.94296875 63 7 C72.9540412 6.37242472 72.9540412 6.37242472 77.125 8.875 C79.74208703 11.84103197 80.1263586 13.4102393 80.15390015 17.26899719 C80.16250061 18.16483521 80.17110107 19.06067322 80.17996216 19.98365784 C80.18635208 21.46188271 80.18635208 21.46188271 80.19287109 22.9699707 C80.20513733 24.52380966 80.20513733 24.52380966 80.21765137 26.10903931 C80.24252874 29.54794734 80.25902661 32.98681407 80.2734375 36.42578125 C80.27876118 37.59819052 80.28408485 38.77059978 80.28956985 39.97853661 C80.31631044 46.18286867 80.33568327 52.38718054 80.35009766 58.59155273 C80.366756 65.00785888 80.4115418 71.42365245 80.4624691 77.8397646 C80.49608282 82.76652128 80.50766865 87.69315537 80.51332474 92.6200161 C80.52005244 94.98555612 80.53531361 97.35108766 80.55921555 99.71651649 C80.59074529 103.02538785 80.59092172 106.3328643 80.58349609 109.6418457 C80.59990143 110.62125626 80.61630676 111.60066681 80.63320923 112.60975647 C80.59397848 116.87450919 80.36453361 119.37879551 78.17678833 123.10694885 C73.39011845 125.95932992 69.06626612 125.6979867 63.58789062 125.64697266 C61.85783028 125.66011505 61.85783028 125.66011505 60.09281921 125.67352295 C56.28024683 125.69552973 52.46883419 125.68095799 48.65625 125.6640625 C46.00735023 125.66743024 43.35848568 125.6722748 40.70959473 125.67855835 C35.15799393 125.68764773 29.60672601 125.67568615 24.05517578 125.65185547 C17.64232726 125.62464496 11.23027359 125.63345967 4.81744432 125.6609875 C-0.69443537 125.68369831 -6.20607616 125.6868692 -11.71798754 125.67379415 C-15.0074336 125.66601018 -18.2964254 125.66689944 -21.58586121 125.68147659 C-25.25375238 125.69416339 -28.92011353 125.67483491 -32.58789062 125.64697266 C-34.21825005 125.66215439 -34.21825005 125.66215439 -35.88154602 125.67764282 C-40.42015754 125.61371196 -43.22528532 125.46155609 -47.17282104 123.10971069 C-49.82391733 118.59775939 -49.6999448 114.74797195 -49.64697266 109.59765625 C-49.65573425 108.55157196 -49.66449585 107.50548767 -49.67352295 106.42770386 C-49.69551713 102.97221313 -49.68096299 99.51800359 -49.6640625 96.0625 C-49.6674306 93.66023513 -49.67228316 91.25797192 -49.67855835 88.85571289 C-49.68592976 83.82193776 -49.6752148 78.78860635 -49.65185547 73.75488281 C-49.62336841 67.30154604 -49.63977082 60.84924894 -49.66971779 54.39595032 C-49.68778299 49.43567059 -49.68203611 44.47563748 -49.66907883 39.51535034 C-49.66574271 37.13589353 -49.66983906 34.75641434 -49.68147659 32.37698364 C-49.69417165 29.05150014 -49.67482457 25.72770169 -49.64697266 22.40234375 C-49.65709381 21.41829559 -49.66721497 20.43424744 -49.67764282 19.42037964 C-49.60584477 14.79458514 -49.50485224 12.67137618 -46.65414429 8.88037109 C-43.39312937 6.57005277 -41.63969886 6.47034622 -37.6875 6.6875 C-36.08455078 6.75517578 -36.08455078 6.75517578 -34.44921875 6.82421875 C-33.64097656 6.88222656 -32.83273437 6.94023437 -32 7 C-31.97421875 7.74765625 -31.9484375 8.4953125 -31.921875 9.265625 C-31.64810005 15.25988912 -31.64810005 15.25988912 -29.375 20.6875 C-26.0090583 22.54762568 -23.78361865 22.54051695 -20 22 C-17.09810094 19.80791798 -16.11757602 18.58185056 -15.390625 14.984375 C-15.34421875 13.91703125 -15.2978125 12.8496875 -15.25 11.75 C-15.16492188 10.13351563 -15.16492188 10.13351563 -15.078125 8.484375 C-15.03945313 7.25460938 -15.03945313 7.25460938 -15 6 C-12.69 6 -10.38 6 -8 6 C-7.814375 4.5459375 -7.814375 4.5459375 -7.625 3.0625 C-7.41875 2.051875 -7.2125 1.04125 -7 0 C-4.29393021 -1.35303489 -2.8671629 -0.7884698 0 0 Z M-42 33 C-42.10571371 35.57562419 -42.14678123 38.12457175 -42.14526367 40.70092773 C-42.14862228 41.50740753 -42.1519809 42.31388733 -42.15544128 43.14480591 C-42.16498015 45.8244173 -42.16689586 48.50396641 -42.16796875 51.18359375 C-42.17117928 53.03825405 -42.17454319 54.8929141 -42.17805481 56.74757385 C-42.18405343 60.64072253 -42.18589396 64.53384898 -42.18530273 68.42700195 C-42.18520107 73.42538678 -42.19885475 78.42362969 -42.21607494 83.42198086 C-42.22717182 87.25401977 -42.22922266 91.08602413 -42.22869301 94.91807747 C-42.22987657 96.76133781 -42.23431924 98.60459894 -42.24202538 100.44784355 C-42.25177886 103.02189052 -42.24896576 105.59562618 -42.24291992 108.16967773 C-42.24853943 108.93702744 -42.25415894 109.70437714 -42.25994873 110.49497986 C-42.379678 114.7062378 -42.379678 114.7062378 -40 118 C-37.96967083 118.30612856 -37.96967083 118.30612856 -35.60365295 118.26069641 C-34.67968216 118.26778122 -33.75571136 118.27486603 -32.80374146 118.28216553 C-31.7870639 118.27968811 -30.77038635 118.27721069 -29.72290039 118.2746582 C-28.12035149 118.2823246 -28.12035149 118.2823246 -26.48542786 118.29014587 C-22.93944765 118.30409242 -19.39366069 118.30308129 -15.84765625 118.30078125 C-13.39147366 118.30466539 -10.93529175 118.30899947 -8.47911072 118.31376648 C-3.32500025 118.3212396 1.82904172 118.3209295 6.9831543 118.31567383 C13.59906926 118.3098778 20.2147044 118.32680842 26.83057308 118.3500185 C31.90480701 118.36472632 36.9789731 118.36563156 42.05322456 118.36250877 C44.49295163 118.36302347 46.93268235 118.36828888 49.37238884 118.37832069 C52.77961459 118.39061046 56.18628941 118.38393803 59.59350586 118.37231445 C60.60815918 118.37995819 61.6228125 118.38760193 62.66821289 118.39547729 C63.59500351 118.38846298 64.52179413 118.38144867 65.47666931 118.3742218 C66.28248412 118.37438954 67.08829893 118.37455729 67.91853237 118.37473011 C70.54875397 117.9012069 71.43081872 117.13883869 73 115 C73.2856674 112.33964229 73.38940887 109.91523367 73.35644531 107.25561523 C73.35848969 106.46835052 73.36053406 105.68108582 73.36264038 104.8699646 C73.36565021 102.26593858 73.34716658 99.66254458 73.328125 97.05859375 C73.32506781 95.25163429 73.32319138 93.44467247 73.32244873 91.63771057 C73.31784451 87.85058577 73.30341322 84.06367348 73.28125 80.27661133 C73.25294737 75.41507395 73.2420366 70.55370388 73.2375679 65.69209194 C73.23341708 61.96127133 73.22360275 58.23048475 73.21169281 54.49968147 C73.20598427 52.70666846 73.2012275 50.91365215 73.19742584 49.12063408 C73.19057338 46.61869391 73.17694629 44.11688778 73.16113281 41.61499023 C73.15945602 40.49673103 73.15945602 40.49673103 73.15774536 39.35588074 C73.18872526 35.55157259 73.18872526 35.55157259 72 32 C57.28390435 31.97667006 42.56781115 31.95902036 27.85170078 31.94818783 C21.01921026 31.94302507 14.18673121 31.93598277 7.35424805 31.92456055 C0.76664695 31.91355293 -5.82094531 31.90772377 -12.40855598 31.90512276 C-14.92808279 31.903268 -17.44760891 31.89964643 -19.96713066 31.89426994 C-23.48257765 31.88706324 -26.99797461 31.8860089 -30.51342773 31.88647461 C-31.56646591 31.88287933 -32.61950409 31.87928406 -33.70445251 31.87557983 C-34.65662659 31.8769545 -35.60880066 31.87832916 -36.58982849 31.87974548 C-37.42220756 31.87882369 -38.25458662 31.8779019 -39.11218929 31.87695217 C-41.01225044 31.79237786 -41.01225044 31.79237786 -42 33 Z " transform="translate(816,195)" style="fill: #F9FCFC;"/><path d="M0 0 C8.36351677 5.25683179 12.82437351 16.35945767 17.25 24.8125 C21.78511333 33.35825365 26.39310684 41.84684527 31.1875 50.25 C37.32955962 61.03218418 43.27103062 71.91759202 49.12329102 82.85961914 C50.16452054 84.77703205 51.22924735 86.68179897 52.31225586 88.57592773 C53.12835327 90.01367554 53.12835327 90.01367554 53.9609375 91.48046875 C54.702229 92.76280396 54.702229 92.76280396 55.45849609 94.07104492 C57.9538312 99.53435606 57.59891433 104.81410904 55.6640625 110.3984375 C52.68348142 116.87218368 49.65705056 120.28122441 43.07484436 123.19839478 C38.27208315 124.95442673 33.81088673 125.04794123 28.73999023 125.01318359 C27.30669876 125.02106903 27.30669876 125.02106903 25.8444519 125.02911377 C22.70732957 125.04224448 19.57072063 125.03360086 16.43359375 125.0234375 C14.2421916 125.02546005 12.05079011 125.02837301 9.85939026 125.03213501 C5.27574225 125.03654884 0.69227009 125.03015689 -3.89135742 125.01611328 C-9.75790922 124.99901201 -15.62404952 125.00887475 -21.49058628 125.02683067 C-26.01253851 125.03768521 -30.5343936 125.03421464 -35.0563488 125.0264473 C-37.21923814 125.02445044 -39.38213639 125.02688643 -41.54501534 125.03388596 C-44.57004197 125.04152892 -47.59440722 125.02985647 -50.61938477 125.01318359 C-51.50737259 125.01925629 -52.39536041 125.02532898 -53.31025696 125.03158569 C-61.23558284 124.95091298 -66.97837615 122.6954849 -72.86328125 117.2734375 C-77.54748494 112.16559781 -78.05844113 106.45343148 -77.828125 99.7578125 C-77.10432446 94.75360534 -75.03979006 90.90755002 -72.50927734 86.57128906 C-71.19650302 84.31871977 -69.92012598 82.04726687 -68.64453125 79.7734375 C-66.46777519 75.90059817 -64.27636691 72.03646089 -62.078125 68.17578125 C-58.42029082 61.73126015 -54.84492404 55.2431839 -51.27841187 48.74789429 C-45.17694316 37.63619258 -38.97769566 26.59233561 -32.54541016 15.66772461 C-31.70782708 14.20588531 -30.89798917 12.72801024 -30.10693359 11.24047852 C-23.80281784 -0.59623673 -13.13959376 -5.30686505 0 0 Z M-19.375 12.625 C-21.5297918 15.74321243 -23.21989623 19.06328983 -24.9375 22.4375 C-25.99030753 24.43718882 -27.04505736 26.43585604 -28.1015625 28.43359375 C-28.64071289 29.46081543 -29.17986328 30.48803711 -29.73535156 31.54638672 C-32.33081545 36.41964456 -35.07256115 41.20696895 -37.8125 46 C-42.8875647 54.92359202 -47.83683177 63.90878693 -52.67993164 72.96044922 C-55.19033811 77.64350819 -57.7365477 82.28607078 -60.44921875 86.85546875 C-60.92335205 87.6652417 -61.39748535 88.47501465 -61.88598633 89.30932617 C-62.76277804 90.79784763 -63.65593456 92.27691453 -64.5690918 93.7434082 C-67.537072 98.82016768 -67.79986823 101.88290283 -66.375 107.625 C-64.02081624 110.56473281 -64.02081624 110.56473281 -61.375 112.625 C-61.045 112.955 -60.715 113.285 -60.375 113.625 C-57.32710514 113.73632603 -54.3016636 113.7824052 -51.25292969 113.78613281 C-50.29521164 113.79109772 -49.33749359 113.79606262 -48.35075378 113.80117798 C-45.16612034 113.81584396 -41.98153674 113.8226097 -38.796875 113.828125 C-36.59067787 113.83387373 -34.38448077 113.83963149 -32.17828369 113.84539795 C-27.54447191 113.8559212 -22.91067753 113.86175488 -18.27685547 113.86523438 C-12.33708181 113.87071546 -6.39753782 113.89472981 -0.45783615 113.92320633 C4.10262728 113.94182655 8.6630354 113.94703803 13.22353363 113.94857025 C15.41320804 113.95159976 17.6028814 113.95963828 19.79251862 113.97275543 C22.85697382 113.9897994 25.92086826 113.98793932 28.98535156 113.98144531 C29.89152725 113.9906601 30.79770294 113.99987488 31.7313385 114.0093689 C36.52709141 113.97751376 39.72696709 113.74253694 43.625 110.625 C45.85372126 107.75950124 46.17749086 104.56849866 46.046875 100.9765625 C45.23257754 96.43760816 42.93710811 92.60584098 40.72070312 88.60595703 C39.47837238 86.3599072 38.26236415 84.10052971 37.046875 81.83984375 C31.1266505 70.86992647 25.0462646 59.99077353 18.93017578 49.12915039 C14.13329588 40.59006617 9.46779515 31.98358034 4.88696289 23.32666016 C0.49305887 14.94751408 0.49305887 14.94751408 -6.375 8.625 C-11.81702558 8.00892163 -15.42165479 8.8478155 -19.375 12.625 Z " transform="translate(588.375,437.375)" style="fill: #F7FAF9;"/><path d="M0 0 C12.21 0 24.42 0 37 0 C35.72056097 3.83831708 34.58973949 7.07631357 32.84521484 10.62841797 C32.42493011 11.48885712 32.00464539 12.34929626 31.57162476 13.23580933 C31.12259796 14.14541412 30.67357117 15.05501892 30.2109375 15.9921875 C29.74765045 16.93812775 29.2843634 17.88406799 28.80703735 18.8586731 C27.33322217 21.86586254 25.85419164 24.8704521 24.375 27.875 C23.37205011 29.91910124 22.36944209 31.96337025 21.3671875 34.0078125 C18.91604857 39.0074866 16.45786818 44.00360821 14 49 C24.89 49 35.78 49 47 49 C40.24489796 58.00680272 40.24489796 58.00680272 37.73828125 61.2265625 C37.18245361 61.94102539 36.62662598 62.65548828 36.05395508 63.39160156 C35.4792749 64.12862305 34.90459473 64.86564453 34.3125 65.625 C33.70237061 66.40842773 33.09224121 67.19185547 32.46362305 67.99902344 C27.43988973 74.44545914 22.39578206 80.87568332 17.33984375 87.296875 C15.94365549 89.0716216 14.54968238 90.84808896 13.15625 92.625 C9.10561081 97.78911459 5.05166655 102.94870663 0.9375 108.0625 C-1.26767835 110.80419597 -3.44081511 113.56559367 -5.57421875 116.36328125 C-6.01822021 116.9452124 -6.46222168 117.52714355 -6.91967773 118.12670898 C-7.78265564 119.26082255 -8.64300899 120.39693988 -9.50024414 121.53540039 C-11.81769648 124.58284786 -14.22329871 127.36340749 -17 130 C-14.65890753 122.56957608 -11.75700906 115.46931638 -8.6875 108.3125 C-8.19693115 107.16072266 -7.7063623 106.00894531 -7.20092773 104.82226562 C-4.21968495 97.82802026 -1.21642675 90.84322863 1.7890625 83.859375 C3.32828733 80.2248183 4.79658178 76.56482957 6.23828125 72.890625 C7 71 7 71 8 69 C-2.23 69 -12.46 69 -23 69 C-20.74990829 58.8745873 -20.74990829 58.8745873 -19.44360352 55.15795898 C-19.15312637 54.32356796 -18.86264923 53.48917694 -18.56336975 52.62950134 C-18.2549968 51.76047684 -17.94662384 50.89145233 -17.62890625 49.99609375 C-17.30591049 49.07337173 -16.98291473 48.15064972 -16.65013123 47.19996643 C-15.62569802 44.27744102 -14.59412333 41.35749401 -13.5625 38.4375 C-12.87389863 36.47476731 -12.18574365 34.51187795 -11.49804688 32.54882812 C-6.41660962 18.07186677 -6.41660962 18.07186677 -4.46850586 12.94555664 C-2.87615503 8.66725543 -1.44358728 4.33076184 0 0 Z " transform="translate(566,192)" style="fill: #F9FAF9;"/><path d="M0 0 C1.11431396 0.00410889 2.22862793 0.00821777 3.37670898 0.01245117 C4.58391602 0.01438477 5.79112305 0.01631836 7.03491211 0.01831055 C8.30141602 0.03055664 9.56791992 0.04280273 10.87280273 0.05541992 C12.77835938 0.05638672 12.77835938 0.05638672 14.72241211 0.05737305 C24.1702022 0.10281939 24.1702022 0.10281939 25.31030273 1.24291992 C25.40991674 2.59166046 25.44104669 3.9455475 25.4440155 5.29795837 C25.44828049 6.17151474 25.45254547 7.04507111 25.4569397 7.94509888 C25.45648651 8.91083832 25.45603333 9.87657776 25.45556641 10.87158203 C25.45892502 11.88288681 25.46228363 12.89419159 25.46574402 13.93614197 C25.47528582 17.29752817 25.47719873 20.65886475 25.47827148 24.02026367 C25.48148176 26.34574912 25.48484565 28.67123435 25.48835754 30.99671936 C25.49435687 35.87851429 25.49619662 40.76029149 25.49560547 45.64208984 C25.49550379 51.91168014 25.50915868 58.18115733 25.52637768 64.45072079 C25.537471 69.2555443 25.5395255 74.06034024 25.53899574 78.86517525 C25.54017979 81.17733716 25.54462516 83.48949971 25.55232811 85.80164909 C25.56207454 89.0294688 25.55927121 92.25703997 25.55322266 95.48486328 C25.55884216 96.44857849 25.56446167 97.4122937 25.57025146 98.4052124 C25.56605698 99.28158859 25.56186249 100.15796478 25.55754089 101.06089783 C25.55808566 101.82468719 25.55863043 102.58847654 25.5591917 103.37541103 C25.31030273 105.24291992 25.31030273 105.24291992 23.31030273 107.24291992 C20.72827148 107.50170898 20.72827148 107.50170898 17.49780273 107.50854492 C16.34022461 107.51112305 15.18264648 107.51370117 13.98999023 107.51635742 C12.77569336 107.50862305 11.56139648 107.50088867 10.31030273 107.49291992 C9.09600586 107.5006543 7.88170898 107.50838867 6.63061523 107.51635742 C4.89424805 107.51249023 4.89424805 107.51249023 3.12280273 107.50854492 C1.5237207 107.50516113 1.5237207 107.50516113 -0.10766602 107.50170898 C-2.68969727 107.24291992 -2.68969727 107.24291992 -4.68969727 105.24291992 C-4.94137955 103.39382172 -4.94137955 103.39382172 -4.94366455 101.10559082 C-4.9493042 100.23907394 -4.95494385 99.37255707 -4.96075439 98.4797821 C-4.9546817 97.05059196 -4.9546817 97.05059196 -4.94848633 95.5925293 C-4.95199097 94.59083206 -4.95549561 93.58913483 -4.95910645 92.55708313 C-4.96793598 89.23354234 -4.96207025 85.91021302 -4.95532227 82.58666992 C-4.95666856 80.28503376 -4.9586088 77.98339788 -4.96112061 75.6817627 C-4.96407353 70.85299986 -4.9597688 66.02431091 -4.95043945 61.19555664 C-4.93904488 54.99436309 -4.94560344 48.79334265 -4.95758438 42.59215546 C-4.96479842 37.8379383 -4.96251714 33.08376244 -4.9573288 28.32954407 C-4.95599104 26.04250569 -4.9576444 23.75546362 -4.9622879 21.46842957 C-4.96734562 18.27662165 -4.95965343 15.08509725 -4.94848633 11.89331055 C-4.95253479 10.94051712 -4.95658325 9.98772369 -4.96075439 9.00605774 C-4.95511475 8.13954086 -4.9494751 7.27302399 -4.94366455 6.38024902 C-4.9429105 5.62513283 -4.94215645 4.87001663 -4.94137955 4.09201813 C-4.49707577 0.82773859 -3.11293392 0.28114453 0 0 Z " transform="translate(851.689697265625,445.757080078125)" style="fill: #F7F8F8;"/><path d="M0 0 C1.15757812 -0.00257813 2.31515625 -0.00515625 3.5078125 -0.0078125 C4.72210937 -0.00007813 5.93640625 0.00765625 7.1875 0.015625 C8.40179687 0.00789063 9.61609375 0.00015625 10.8671875 -0.0078125 C12.60355469 -0.00394531 12.60355469 -0.00394531 14.375 0 C15.44105469 0.00225586 16.50710938 0.00451172 17.60546875 0.00683594 C20.1875 0.265625 20.1875 0.265625 22.1875 2.265625 C22.43918228 4.11472321 22.43918228 4.11472321 22.44146729 6.4029541 C22.44710693 7.26947098 22.45274658 8.13598785 22.45855713 9.02876282 C22.45450867 9.98155624 22.45046021 10.93434967 22.44628906 11.91601562 C22.4497937 12.91771286 22.45329834 13.9194101 22.45690918 14.95146179 C22.46573871 18.27500258 22.45987299 21.5983319 22.453125 24.921875 C22.4544713 27.22351116 22.45641153 29.52514704 22.45892334 31.82678223 C22.46187626 36.65554506 22.45757153 41.48423402 22.44824219 46.31298828 C22.43684761 52.51418183 22.44340618 58.71520227 22.45538712 64.91638947 C22.46260116 69.67060662 22.46031988 74.42478248 22.45513153 79.17900085 C22.45379377 81.46603923 22.45544714 83.75308131 22.46009064 86.04011536 C22.46514836 89.23192327 22.45745617 92.42344767 22.44628906 95.61523438 C22.45033752 96.5680278 22.45438599 97.52082123 22.45855713 98.50248718 C22.45291748 99.36900406 22.44727783 100.23552094 22.44146729 101.1282959 C22.44071323 101.88341209 22.43995918 102.63852829 22.43918228 103.41652679 C22.1875 105.265625 22.1875 105.265625 20.1875 107.265625 C17.60546875 107.52441406 17.60546875 107.52441406 14.375 107.53125 C13.21742188 107.53382813 12.05984375 107.53640625 10.8671875 107.5390625 C9.65289063 107.53132812 8.43859375 107.52359375 7.1875 107.515625 C5.97320313 107.52335938 4.75890625 107.53109375 3.5078125 107.5390625 C1.77144531 107.53519531 1.77144531 107.53519531 0 107.53125 C-1.59908203 107.52786621 -1.59908203 107.52786621 -3.23046875 107.52441406 C-5.8125 107.265625 -5.8125 107.265625 -7.8125 105.265625 C-8.06418228 103.41652679 -8.06418228 103.41652679 -8.06646729 101.1282959 C-8.07210693 100.26177902 -8.07774658 99.39526215 -8.08355713 98.50248718 C-8.07748444 97.07329704 -8.07748444 97.07329704 -8.07128906 95.61523438 C-8.0747937 94.61353714 -8.07829834 93.6118399 -8.08190918 92.57978821 C-8.09073871 89.25624742 -8.08487299 85.9329181 -8.078125 82.609375 C-8.0794713 80.30773884 -8.08141153 78.00610296 -8.08392334 75.70446777 C-8.08687626 70.87570494 -8.08257153 66.04701598 -8.07324219 61.21826172 C-8.06184761 55.01706817 -8.06840618 48.81604773 -8.08038712 42.61486053 C-8.08760116 37.86064338 -8.08531988 33.10646752 -8.08013153 28.35224915 C-8.07879377 26.06521077 -8.08044714 23.77816869 -8.08509064 21.49113464 C-8.09014836 18.29932673 -8.08245617 15.10780233 -8.07128906 11.91601562 C-8.07533752 10.9632222 -8.07938599 10.01042877 -8.08355713 9.02876282 C-8.07791748 8.16224594 -8.07227783 7.29572906 -8.06646729 6.4029541 C-8.06571323 5.64783791 -8.06495918 4.89272171 -8.06418228 4.11472321 C-7.42702473 -0.56644414 -3.83519204 0.00811558 0 0 Z " transform="translate(793.8125,445.734375)" style="fill: #F7F8F8;"/><path d="M0 0 C5.28 0 10.56 0 16 0 C16.02326443 4.81573779 16.0430807 9.63127174 16.05493164 14.44702148 C16.05988474 16.07691111 16.06664905 17.70679648 16.07543945 19.33666992 C16.1212443 28.06384021 16.07091151 36.78400364 15.68359375 45.50390625 C15.66136246 46.21586655 15.63913116 46.92782684 15.6162262 47.66136169 C15.46092976 50.56789007 15.32204541 52.5585308 13.58056641 54.94580078 C10.52068109 56.98666961 7.57025417 56.28335351 4 56 C1.42964958 53.42964958 1.63073647 52.17801599 1.3671875 48.59375 C1.2832373 47.4687207 1.19928711 46.34369141 1.11279297 45.18457031 C1.03432129 43.96866211 0.95584961 42.75275391 0.875 41.5 C0.79008301 40.26088867 0.70516602 39.02177734 0.61767578 37.74511719 C-0.17471371 25.15935734 -0.18843536 12.60423217 0 0 Z " transform="translate(570,465)" style="fill: #F8FBFA;"/><path d="M0 0 C2.875 0.75 2.875 0.75 3.875 1.75 C3.97380797 3.22652664 4.00579245 4.70767236 4.0078125 6.1875 C4.00974609 7.52941406 4.00974609 7.52941406 4.01171875 8.8984375 C4.00785156 9.83945313 4.00398437 10.78046875 4 11.75 C4.00386719 12.69101563 4.00773438 13.63203125 4.01171875 14.6015625 C4.01042969 15.49617187 4.00914062 16.39078125 4.0078125 17.3125 C4.00668457 18.13878906 4.00555664 18.96507812 4.00439453 19.81640625 C3.875 21.75 3.875 21.75 2.875 22.75 C-0.5625 23 -0.5625 23 -4.125 22.75 C-6.68712287 18.90681569 -6.45608539 15.70306045 -6.4375 11.25 C-6.45361328 10.47785156 -6.46972656 9.70570313 -6.48632812 8.91015625 C-6.49124547 3.23554301 -6.49124547 3.23554301 -4.79760742 0.99023438 C-3.125 -0.25 -3.125 -0.25 0 0 Z " transform="translate(871.125,191.25)" style="fill: #F4F8F8;"/><path d="M0 0 C3 0.1875 3 0.1875 6 1 C8.49111925 4.73667887 8.29613477 7.67870976 8.25 12 C8.25773438 12.72445312 8.26546875 13.44890625 8.2734375 14.1953125 C8.25942063 17.99388493 8.15441944 19.76837084 6 23 C2.4375 23.25 2.4375 23.25 -1 23 C-3.30009773 20.69990227 -2.18537365 15.15209334 -2.1875 12.0625 C-2.19974609 11.12986328 -2.21199219 10.19722656 -2.22460938 9.23632812 C-2.22654297 8.34494141 -2.22847656 7.45355469 -2.23046875 6.53515625 C-2.23663208 5.30357788 -2.23663208 5.30357788 -2.24291992 4.04711914 C-2 2 -2 2 0 0 Z " transform="translate(790,191)" style="fill: #F6FAF7;"/><path d="M0 0 C2 1.5625 2 1.5625 3 4 C3.18386699 6.84993839 2.93387555 9.2957714 2 12 C-0.1875 14.0625 -0.1875 14.0625 -3 15 C-6.11672513 14.87533099 -8.15800608 14.52261692 -10.8125 12.875 C-12.6667364 9.94725831 -12.87971231 7.42819926 -13 4 C-10.00025251 -1.69952023 -5.7999257 -1.34641132 0 0 Z " transform="translate(583,528)" style="fill: #F6FAF9;"/><path d="M0 0 C4.95 0 9.9 0 15 0 C15 3.96 15 7.92 15 12 C10.05 12 5.1 12 0 12 C0 8.04 0 4.08 0 0 Z " transform="translate(866,272)" style="fill: #F3F8F8;"/><path d="M0 0 C4.95 0 9.9 0 15 0 C15 3.96 15 7.92 15 12 C10.05 12 5.1 12 0 12 C0 8.04 0 4.08 0 0 Z " transform="translate(845,272)" style="fill: #F3F7F7;"/><path d="M0 0 C4.95 0 9.9 0 15 0 C15 3.96 15 7.92 15 12 C10.05 12 5.1 12 0 12 C0 8.04 0 4.08 0 0 Z " transform="translate(783,272)" style="fill: #F2F6F5;"/><path d="M0 0 C4.95 0 9.9 0 15 0 C15 3.96 15 7.92 15 12 C10.05 12 5.1 12 0 12 C0 8.04 0 4.08 0 0 Z " transform="translate(783,254)" style="fill: #F4F8F8;"/><path d="M0 0 C4.95 0 9.9 0 15 0 C15 3.96 15 7.92 15 12 C10.05 12 5.1 12 0 12 C0 8.04 0 4.08 0 0 Z " transform="translate(866,237)" style="fill: #F3F8F9;"/><path d="M0 0 C4.95 0 9.9 0 15 0 C15 3.96 15 7.92 15 12 C10.05 12 5.1 12 0 12 C0 8.04 0 4.08 0 0 Z " transform="translate(845,237)" style="fill: #F4F8F8;"/><path d="M0 0 C4.95 0 9.9 0 15 0 C15 3.96 15 7.92 15 12 C10.05 12 5.1 12 0 12 C0 8.04 0 4.08 0 0 Z " transform="translate(824,237)" style="fill: #F6F9F9;"/><path d="M0 0 C4.95 0 9.9 0 15 0 C15 3.96 15 7.92 15 12 C12.68756208 12.02685412 10.3750373 12.04632841 8.0625 12.0625 C6.77472656 12.07410156 5.48695313 12.08570313 4.16015625 12.09765625 C1 12 1 12 0 11 C-0.14310287 7.3308423 -0.04221662 3.67284559 0 0 Z " transform="translate(783,290)" style="fill: #EFF5F4;"/><path d="M0 0 C4.62 0 9.24 0 14 0 C14 3.96 14 7.92 14 12 C9.38 12 4.76 12 0 12 C0 8.04 0 4.08 0 0 Z " transform="translate(804,290)" style="fill: #F5F9F9;"/><path d="M0 0 C4.62 0 9.24 0 14 0 C14 3.96 14 7.92 14 12 C9.38 12 4.76 12 0 12 C0 8.04 0 4.08 0 0 Z " transform="translate(825,272)" style="fill: #F5F9F8;"/><path d="M0 0 C4.62 0 9.24 0 14 0 C14 3.96 14 7.92 14 12 C9.38 12 4.76 12 0 12 C0 8.04 0 4.08 0 0 Z " transform="translate(804,272)" style="fill: #F5F9F8;"/><path d="M0 0 C4.62 0 9.24 0 14 0 C14 3.96 14 7.92 14 12 C9.38 12 4.76 12 0 12 C0 8.04 0 4.08 0 0 Z " transform="translate(804,237)" style="fill: #F8FCFC;"/><path d="M0 0 C4.95 0 9.9 0 15 0 C15 3.63 15 7.26 15 11 C10.05 11 5.1 11 0 11 C0 7.37 0 3.74 0 0 Z " transform="translate(845,255)" style="fill: #F7FBFB;"/><path d="M0 0 C4.62 0 9.24 0 14 0 C14 3.63 14 7.26 14 11 C9.38 11 4.76 11 0 11 C0 7.37 0 3.74 0 0 Z " transform="translate(825,290)" style="fill: #F9FCFC;"/><path d="M0 0 C4.62 0 9.24 0 14 0 C14 3.63 14 7.26 14 11 C9.38 11 4.76 11 0 11 C0 7.37 0 3.74 0 0 Z " transform="translate(866,255)" style="fill: #FAFDFD;"/><path d="M0 0 C4.62 0 9.24 0 14 0 C14 3.63 14 7.26 14 11 C9.38 11 4.76 11 0 11 C0 7.37 0 3.74 0 0 Z " transform="translate(825,255)" style="fill: #F9FDFC;"/><path d="M0 0 C4.62 0 9.24 0 14 0 C14 3.63 14 7.26 14 11 C9.38 11 4.76 11 0 11 C0 7.37 0 3.74 0 0 Z " transform="translate(804,255)" style="fill: #FBFEFD;"/></svg>